<svg width="44" height="44" viewBox="0 0 44 44" fill="none" xmlns="http://www.w3.org/2000/svg">
<path d="M22.46 8.71728V10.9584C26.9562 11.1651 30.8041 14.7773 31.3324 19.2367L41.1676 19.2928L41.5574 19.7799C41.4698 21.0669 41.681 22.5116 41.5645 23.7776C41.5417 24.0212 41.4216 24.5039 41.1211 24.5039H39.2699V36.5872H41.1211C41.1763 36.5872 41.5303 36.9841 41.5574 37.1251C41.6617 37.6727 41.6451 40.619 41.5645 41.2209C41.518 41.5661 41.2061 41.8833 40.8347 41.8552L2.72917 41.8473C2.44093 41.7518 2.22541 41.5188 2.18598 41.2209C2.10538 40.6164 2.08873 37.6744 2.19299 37.1251C2.22015 36.9841 2.5741 36.5872 2.62929 36.5872H5.01669V24.6502L4.87038 24.5039H2.62929C2.32879 24.5039 2.20876 24.0203 2.18598 23.7776C2.06858 22.5116 2.27973 21.0669 2.19299 19.7799L2.58286 19.2928L12.4181 19.2367C12.9376 14.8895 16.6208 11.3062 20.9969 10.9575L21.0714 2.50479C21.2098 2.18063 21.5988 2.0974 21.9195 2.08689C24.3988 2.26737 27.1831 1.85998 29.6257 2.08689C30.2802 2.14734 30.5684 2.34184 30.6455 3.01644C30.7699 4.11333 30.7471 6.57607 30.6499 7.69749C30.6254 7.97697 30.4598 8.71641 30.1102 8.71641H22.4609L22.46 8.71728ZM29.086 3.64987H22.46V7.25506H29.086V3.64987ZM29.8658 19.2411C29.4575 17.1586 28.4482 15.3161 26.7389 14.0361C21.7819 10.3249 14.901 13.2599 13.8847 19.2411H29.8658ZM40.0978 20.7033H3.65259V23.0417H40.0978V20.7033ZM10.474 36.5872V24.6502L10.3277 24.5039H6.47892V36.5872H10.474ZM11.9362 36.5872H15.7849L15.9313 36.4409V24.6502L15.7849 24.5039H11.9362V36.5872ZM21.2904 24.5039H17.3926V36.5872H21.2904V24.5039ZM26.7477 24.5039H22.8499V36.5872H26.7477V24.5039ZM32.205 24.5039H28.3072V36.5872H32.205V24.5039ZM37.6614 24.5039H33.7636V36.5872H37.6614V24.5039ZM40.0978 38.0485H3.65259V40.3869H40.0978V38.0485Z" fill="#2F2E2E"/>
</svg>
