<svg width="47" height="42" viewBox="0 0 47 42" fill="none" xmlns="http://www.w3.org/2000/svg">
<path d="M0.238901 41.1372C-0.206304 40.692 0.104067 39.0664 0.120603 38.4545C0.236357 34.3752 0.316493 28.5443 2.83889 25.176C4.46071 23.0098 7.16628 21.5177 9.91128 21.5368L10.5727 19.7712C9.68232 18.587 8.92802 17.502 8.52352 16.0481C7.99054 14.1324 8.39123 12.5971 8.2106 10.7438C8.06178 9.23007 7.57205 8.05473 7.74759 6.3744C8.24367 1.62471 16.6949 -1.31619 20.5593 0.585471C21.7766 1.18459 21.5985 2.0203 22.2078 2.84075C22.4495 3.16638 23.0079 3.44241 23.3081 3.74006C24.4784 4.89759 25.1195 6.66187 24.5928 8.27097C24.3881 8.89553 23.5256 10.0938 23.4518 10.558C23.3043 11.4726 23.5065 12.8019 23.4455 13.789C23.3043 16.0888 22.4928 18.0426 20.9892 19.77L21.6329 21.5063C25.7631 21.6716 29.0525 24.4395 30.2317 28.3331C31.0763 31.1201 31.3625 34.9489 31.4477 37.8758C31.4643 38.4456 31.5342 40.5699 31.3727 40.9502C31.3116 41.094 31.1755 41.2097 31.0394 41.2835L0.923243 41.3598C0.731169 41.3586 0.369918 41.267 0.240173 41.1372H0.238901ZM9.25874 8.98075C9.78408 8.85228 10.0537 8.02166 10.6389 8.0242C10.9251 8.0242 12.0292 8.64749 12.4464 8.79249C14.5363 9.51881 16.5766 9.52645 18.7047 8.95404C19.1728 8.82811 20.7399 8.13868 21.002 8.1514C21.4484 8.1743 22.0285 9.02782 22.4444 9.26441C23.4277 7.78379 23.7457 6.6288 22.5716 5.14055C22.1188 4.5656 21.3874 4.17 20.9689 3.60014C20.4804 2.93361 20.6025 2.14496 19.7109 1.81042C16.4431 0.584199 9.32743 2.86492 9.15825 6.92772C9.13027 7.61207 9.33506 8.28878 9.25747 8.97821L9.25874 8.98075ZM10.8284 9.67273L9.65942 10.7616C9.57929 13.3692 9.4152 15.6525 10.9899 17.8658C14.156 22.314 20.3163 20.668 21.6825 15.6448C21.9725 14.5814 22.0717 12.0221 21.9267 10.9282C21.8898 10.6534 21.8135 10.6318 21.6367 10.4563C21.5387 10.3583 20.8099 9.75286 20.7488 9.75922C17.6057 11.1394 13.9359 11.1788 10.8271 9.674L10.8284 9.67273ZM19.8253 20.6922C17.7456 21.9782 15.3962 22.314 13.0964 21.3752C12.6296 21.1844 12.2047 20.8728 11.7341 20.6922L11.28 21.982L15.5883 25.1442L20.1637 22.0252L19.8253 20.6934V20.6922ZM14.3035 25.9316L10.2802 23.0505L8.59093 23.0746L12.5418 27.341C12.9717 26.8907 13.7947 26.5663 14.2043 26.1631C14.2845 26.0842 14.3392 26.0753 14.3035 25.9316ZM22.5882 23.0734L21.2589 23.0289C19.875 23.9956 18.4668 24.928 17.0905 25.9036C17.0231 25.9507 16.929 25.8858 16.9709 26.0702L18.7327 27.341L22.5882 23.0734ZM30.0154 39.9263C29.906 36.7411 29.8679 33.4161 29.2255 30.2895C28.606 27.2736 27.2768 24.8224 24.3321 23.5631C24.1858 23.5491 23.4671 24.3276 23.3005 24.4993C21.9598 25.882 20.7425 27.4033 19.3979 28.7847C18.7581 29.2706 18.5508 28.9781 17.9695 28.5977C17.8855 28.6041 17.2839 29.7578 17.3475 29.9702L18.5889 39.925H24.3499L24.4924 39.7825V31.8795C24.4924 31.7409 24.9999 31.4687 25.192 31.4788C25.4298 31.4916 25.9208 31.8617 25.9208 32.069V39.9237H30.0154V39.9263ZM7.06833 39.9263H12.5431C12.7173 39.7304 12.7301 39.3055 12.7695 39.0104C13.1384 36.2209 13.5747 33.2266 13.8151 30.4396C13.8825 29.6535 13.8151 29.2414 13.2986 28.5965C13.0557 28.5443 12.6855 29.3902 11.9198 28.8369L7.02381 23.6458C4.10582 24.9521 2.83253 27.4631 2.24105 30.4803C1.64066 33.5382 1.56434 36.8137 1.54653 39.9263H5.4974L5.63986 39.7838V31.8808C5.63986 31.7421 6.1474 31.4699 6.33947 31.4801C6.57734 31.4928 7.06833 31.863 7.06833 32.0703V39.925V39.9263ZM16.1937 28.8649L16.6771 27.7048C16.4329 27.5343 15.7778 26.9199 15.5158 26.9886C15.4662 27.0014 14.7093 27.5483 14.6788 27.589C14.4333 27.9134 15.0184 28.4934 15.082 28.8636H16.1937V28.8649ZM14.114 39.9263H17.018L17.121 39.7317L15.9088 30.3226L15.255 30.3086L14.1127 39.9263H14.114Z" fill="#2F2E2E"/>
<path d="M35.9963 7.67324C41.0119 7.52823 44.1194 12.9941 41.4813 17.2566C41.2001 17.7107 40.7422 18.1228 40.5056 18.5667C40.3123 18.928 40.2461 19.4419 39.9994 19.7739C39.8645 19.9545 39.6597 20.0194 39.5898 20.1262C39.4409 20.3527 39.4091 20.9937 39.2082 21.3639C39.0441 21.6679 38.5683 21.9961 38.5098 22.1882C38.3852 22.5965 38.4768 22.9234 38.2071 23.4093C37.3688 24.9166 35.0042 24.9281 34.2219 23.3889C34.0044 22.9603 34.0247 22.4527 33.867 22.1246C33.7538 21.8905 33.3442 21.5967 33.1699 21.2036C33.0084 20.8398 33.0287 20.4722 32.9168 20.2191C32.8405 20.0461 32.45 19.8133 32.3139 19.5844C32.1472 19.302 32.1078 18.914 31.9577 18.6075C31.6461 17.9753 31.0062 17.4588 30.6653 16.7579C28.6874 12.7015 31.426 7.80553 35.9963 7.67324ZM33.7754 18.9789C34.2422 19.0603 34.9011 18.9191 35.3947 18.9789L35.5371 18.8364V15.5037C35.083 14.9135 33.6228 14.7202 34.2155 13.7051C34.6442 12.9699 35.6936 13.7853 36.1731 14.1045C36.5458 14.1694 37.3587 12.9457 38.1142 13.5945C39.0543 14.3996 37.4591 14.9949 36.9656 15.4096V18.9802H38.6319C38.9194 18.9802 39.0873 18.1444 39.2336 17.8684C39.4995 17.366 39.9459 16.978 40.2423 16.4972C41.7369 14.0765 40.9012 10.8291 38.2974 9.60288C34.6226 7.87421 30.5737 11.2171 31.6054 15.1527C31.9971 16.6486 33.2539 17.3863 33.5592 18.8619C33.5744 18.8835 33.7461 18.9751 33.7754 18.9802V18.9789ZM38.0125 20.4074H34.3949C34.7091 21.369 36.1833 21.2545 37.0178 21.1744C37.5049 21.1273 37.8993 20.9225 38.0125 20.4074ZM36.9656 22.5965H35.5371C35.6643 23.2986 36.7913 23.2401 36.9656 22.5965Z" fill="#2F2E2E"/>
<path d="M29.1323 17.2831C29.8434 17.1445 30.2962 17.9955 29.8676 18.5004C29.7976 18.5819 28.1478 19.5626 28.0193 19.602C27.2561 19.8361 26.6468 19.2217 27.0564 18.5437C27.1404 18.4038 28.9466 17.32 29.1336 17.2831H29.1323Z" fill="#2F2E2E"/>
<path d="M31.7949 4.91668C31.9463 5.05533 32.9499 6.84632 32.9639 7.03458C33.0008 7.57518 32.4309 7.97587 31.945 7.76726C31.6652 7.64641 30.6285 5.91266 30.589 5.59211C30.5013 4.87597 31.2568 4.42441 31.7949 4.91668Z" fill="#2F2E2E"/>
<path d="M45.3143 18.4369C45.8053 18.975 45.4008 19.7509 44.6363 19.6402C44.4073 19.6072 42.9191 18.774 42.7232 18.5997C42.1419 18.0846 42.4815 17.2234 43.1938 17.2654C43.3541 17.2743 45.1909 18.3021 45.3143 18.4369Z" fill="#2F2E2E"/>
<path d="M40.7442 7.61858C40.2062 8.10958 39.4303 7.70635 39.5409 6.9406C39.5893 6.60733 40.5611 4.95626 40.8447 4.81379C41.3446 4.56194 41.9514 4.98806 41.9158 5.49814C41.9043 5.66223 40.8804 7.49392 40.7455 7.61731L40.7442 7.61858Z" fill="#2F2E2E"/>
<path d="M27.6115 8.33211C27.8468 8.31176 29.5729 9.26068 29.779 9.4553C30.387 10.0264 29.9075 10.913 28.9636 10.6497C28.7906 10.6014 27.2121 9.66645 27.1154 9.54688C26.7567 9.10168 27.0289 8.38172 27.6102 8.33211H27.6115Z" fill="#2F2E2E"/>
<path d="M44.7481 8.33183C45.2888 8.28476 45.7543 8.98946 45.3447 9.5059C45.2035 9.68398 43.6733 10.6151 43.4634 10.6711C42.704 10.8708 42.0935 10.2042 42.5806 9.59748C42.7791 9.35071 44.4569 8.35727 44.7481 8.33183Z" fill="#2F2E2E"/>
<path d="M26.2759 13.2878C26.6753 13.2165 28.0198 13.2114 28.3976 13.3106C29.2219 13.5243 29.0578 14.575 28.4409 14.6908C28.147 14.7468 26.2632 14.7328 26.01 14.6513C25.4135 14.458 25.4949 13.4277 26.2759 13.2878Z" fill="#2F2E2E"/>
<path d="M44.0781 13.2852C44.3808 13.2178 45.925 13.2178 46.2278 13.2852C47.0012 13.4582 47.0151 14.5648 46.341 14.6908C46.0433 14.7467 44.1646 14.734 43.9102 14.6513C43.3327 14.4643 43.3925 13.4391 44.0781 13.2852Z" fill="#2F2E2E"/>
<path d="M36.1696 3.39141C36.4431 3.37742 36.7929 3.61655 36.8921 3.86332C37.0066 4.14826 37.0193 5.82095 36.9443 6.15168C36.7789 6.88817 35.6354 6.95559 35.5349 6.0779C35.4878 5.67467 35.4764 4.27037 35.5578 3.90657C35.6201 3.62673 35.8859 3.4054 36.1709 3.39014L36.1696 3.39141Z" fill="#2F2E2E"/>
</svg>
