<svg width="35" height="35" viewBox="0 0 35 35" fill="none" xmlns="http://www.w3.org/2000/svg">
<path d="M17.0477 33.6C26.1868 33.6 33.5954 26.1903 33.5954 17.05C33.5954 7.90969 26.1868 0.5 17.0477 0.5C7.90866 0.5 0.5 7.90969 0.5 17.05C0.5 26.1903 7.90866 33.6 17.0477 33.6Z" stroke="black" stroke-miterlimit="10"/>
<path d="M22.0192 11.9172C21.463 11.9172 21.0117 12.3686 21.0117 12.9248C21.0117 13.4811 21.463 13.937 22.0192 13.937C22.5753 13.937 23.0312 13.4856 23.0312 12.9248C23.0312 12.364 22.5799 11.9172 22.0192 11.9172Z" fill="black"/>
<path d="M17.5286 13.2119C15.19 13.2119 13.2891 15.1131 13.2891 17.452C13.2891 19.7909 15.19 21.6921 17.5286 21.6921C19.8671 21.6921 21.7681 19.7909 21.7681 17.452C21.7681 15.1131 19.8671 13.2119 17.5286 13.2119ZM17.5286 20.1693C16.0288 20.1693 14.8116 18.952 14.8116 17.452C14.8116 15.952 16.0288 14.7347 17.5286 14.7347C19.0283 14.7347 20.2455 15.952 20.2455 17.452C20.2455 18.952 19.0283 20.1693 17.5286 20.1693Z" fill="black"/>
<path d="M20.897 26.0646H14.0226C11.169 26.0646 8.84863 23.744 8.84863 20.8899V14.0146C8.84863 11.1605 11.169 8.83984 14.0226 8.83984H20.897C23.7507 8.83984 26.071 11.1605 26.071 14.0146V20.8899C26.071 23.744 23.7507 26.0646 20.897 26.0646ZM14.0181 10.4629C12.0579 10.4629 10.4669 12.0587 10.4669 14.0146V20.8899C10.4669 22.8504 12.0624 24.4415 14.0181 24.4415H20.8925C22.8527 24.4415 24.4436 22.8458 24.4436 20.8899V14.0146C24.4436 12.0541 22.8481 10.4629 20.8925 10.4629H14.0181Z" fill="black"/>
</svg>
