<svg width="255" height="64" viewBox="0 0 255 64" fill="none" xmlns="http://www.w3.org/2000/svg">
<path d="M28.5279 14.6583C28.3144 14.8226 28.1173 14.9211 27.9366 14.9539C27.756 14.9868 27.6164 14.9786 27.5178 14.9293C27.4357 14.8636 27.4111 14.7733 27.4439 14.6583C27.4768 14.5269 27.5999 14.3791 27.8135 14.2149C29.0781 13.2951 30.2278 12.3507 31.2625 11.3817C32.2972 10.4127 33.2005 9.46835 33.9724 8.54861C34.7444 7.62887 35.3849 6.7584 35.894 5.9372C36.4032 5.09958 36.7645 4.36872 36.978 3.74461C37.1915 3.10407 37.249 2.58672 37.1505 2.19254C37.0683 1.78195 36.8138 1.5438 36.3868 1.4781C35.467 1.33029 34.3009 1.42883 32.8885 1.77373C31.476 2.11864 29.9404 2.63599 28.2815 3.3258C26.6391 3.99918 24.9311 4.81216 23.1573 5.76475C21.3999 6.70091 19.6918 7.70277 18.033 8.77033C16.3906 9.82146 14.8714 10.8972 13.4754 11.9976C12.0793 13.0816 10.9214 14.1081 10.0017 15.0771C9.08196 16.0461 8.46606 16.9248 8.15401 17.7132C7.85838 18.4851 7.98156 19.0846 8.52355 19.5116C9.11481 19.9715 9.98528 20.3738 11.135 20.7187C12.2846 21.0636 13.5821 21.4003 15.0274 21.7288C16.4727 22.0409 17.9919 22.3693 19.5851 22.7143C21.1782 23.0592 22.7056 23.4698 24.1673 23.946C25.6455 24.4059 26.9841 24.9561 28.183 25.5967C29.3984 26.2372 30.3427 27.0173 31.0161 27.9371C33.0034 27.5265 34.6951 27.2062 36.0911 26.9763C37.4872 26.7299 38.4233 26.5492 38.8996 26.4343C38.9982 26.4014 39.0639 26.4096 39.0967 26.4589C39.146 26.5082 39.1788 26.5739 39.1952 26.656C39.2117 26.7217 39.2035 26.7874 39.1706 26.8531C39.1542 26.9188 39.1213 26.9598 39.0721 26.9763C38.0702 27.1733 36.9123 27.4033 35.5984 27.6661C34.3009 27.9124 32.8967 28.1998 31.3857 28.5283C31.7141 29.1032 31.9112 29.7355 31.9769 30.4253C32.059 31.1151 31.9934 31.8706 31.7798 32.6918C31.5663 33.513 31.1886 34.3999 30.6466 35.3525C30.1046 36.3215 29.3737 37.3726 28.454 38.5059C26.9758 40.3125 25.3499 41.8646 23.5761 43.162C21.8187 44.4595 20.0285 45.5271 18.2055 46.3647C16.3824 47.2023 14.5758 47.8182 12.7856 48.2124C10.9954 48.6066 9.32832 48.8037 7.78447 48.8037C6.55268 48.8037 5.43585 48.6805 4.43399 48.4341C3.4157 48.2042 2.56987 47.8675 1.89649 47.4241C1.22311 46.9806 0.738603 46.4304 0.442973 45.7735C0.147342 45.1329 0.106282 44.4021 0.319793 43.5809C0.51688 42.7597 0.993175 41.8563 1.74868 40.8709C2.50418 39.9019 3.58816 38.859 5.00061 37.7422C6.03532 36.921 7.185 36.1572 8.44964 35.451C9.71428 34.7448 11.0364 34.0796 12.416 33.4555C13.8121 32.8478 15.2491 32.2894 16.7273 31.7803C18.2219 31.2547 19.7082 30.7784 21.1864 30.3514C22.681 29.9244 24.1427 29.5384 25.5716 29.1935C27.0005 28.8322 28.3637 28.5119 29.6612 28.2327C29.0863 27.4936 28.2898 26.8695 27.2715 26.3604C26.2696 25.8512 25.1364 25.416 23.8717 25.0547C22.6071 24.6769 21.2685 24.3566 19.8561 24.0939C18.4436 23.8147 17.064 23.5437 15.7172 23.2809C14.3705 23.0017 13.0976 22.706 11.8987 22.394C10.6997 22.0819 9.68144 21.696 8.84381 21.2361C8.02262 20.7598 7.42314 20.1932 7.04539 19.5362C6.66764 18.8793 6.61837 18.0827 6.89758 17.1465C7.11109 16.4567 7.57917 15.6848 8.30183 14.8308C9.0409 13.9767 9.96064 13.0816 11.061 12.1454C12.1779 11.2093 13.4261 10.2649 14.8057 9.31232C16.2017 8.34331 17.6553 7.40714 19.1663 6.50383C20.6937 5.60051 22.2375 4.75468 23.7978 3.96633C25.3745 3.17798 26.8855 2.48818 28.3308 1.89691C29.7761 1.30565 31.1229 0.845782 32.3711 0.517304C33.6357 0.172401 34.7115 -5.06409e-05 35.5984 -5.06409e-05C36.2718 -5.06409e-05 36.8138 0.106705 37.2244 0.320216C37.9142 0.681542 38.3248 1.17426 38.4562 1.79837C38.5876 2.42248 38.4972 3.13692 38.1852 3.94169C37.8895 4.73004 37.4132 5.58409 36.7563 6.50383C36.1158 7.42357 35.352 8.35973 34.4652 9.31232C33.5947 10.2485 32.6421 11.1764 31.6074 12.0962C30.5891 13.0159 29.5626 13.87 28.5279 14.6583ZM30.0553 28.824C27.9859 29.2838 25.818 29.8176 23.5514 30.4253C21.2849 31.033 19.0677 31.7146 16.8998 32.4701C14.7318 33.242 12.6788 34.096 10.7408 35.0322C8.80276 35.9684 7.11109 37.0031 5.66578 38.1363C4.38472 39.1382 3.39928 40.0743 2.70948 40.9448C2.01967 41.8317 1.57622 42.6365 1.37914 43.3591C1.18205 44.0982 1.20669 44.7552 1.45304 45.33C1.6994 45.9048 2.11821 46.3894 2.70948 46.7835C3.30074 47.1941 4.03981 47.5062 4.92671 47.7197C5.8136 47.9332 6.80725 48.04 7.90765 48.04C9.30369 48.04 10.8147 47.8511 12.4407 47.4733C14.0831 47.112 15.7419 46.5454 17.4171 45.7735C19.1088 45.0015 20.7676 44.0079 22.3936 42.7925C24.0195 41.5771 25.5223 40.1154 26.9019 38.4073C27.8217 37.2741 28.5525 36.2394 29.0945 35.3032C29.6365 34.367 30.0225 33.5048 30.2524 32.7164C30.4988 31.9281 30.5973 31.2136 30.548 30.5731C30.4988 29.9326 30.3345 29.3495 30.0553 28.824ZM43.7236 26.7299C43.6251 26.8777 43.4937 27.0748 43.3295 27.3212C43.1652 27.5511 43.001 27.7975 42.8367 28.0602C42.6725 28.323 42.5329 28.5858 42.4179 28.8486C42.303 29.1114 42.2291 29.3331 42.1962 29.5138C42.1305 29.8915 42.1634 30.1625 42.2947 30.3267C42.4426 30.4746 42.6314 30.5485 42.8614 30.5485C43.0913 30.5485 43.3459 30.4828 43.6251 30.3514C43.9207 30.2036 44.1753 30.0311 44.3888 29.834C44.7009 29.5548 45.0047 29.2346 45.3003 28.8732C45.596 28.5119 45.8587 28.1752 46.0887 27.8632C46.335 27.5347 46.5321 27.2555 46.6799 27.0255C46.8442 26.7792 46.9427 26.6396 46.9756 26.6067C47.0248 26.5575 47.0823 26.5328 47.148 26.5328C47.2301 26.5328 47.304 26.5821 47.3697 26.6806C47.4354 26.7792 47.4272 26.8777 47.3451 26.9763C47.1152 27.3212 46.8278 27.7318 46.4829 28.2081C46.1544 28.6844 45.7848 29.1442 45.3742 29.5877C44.9801 30.0147 44.553 30.3842 44.0932 30.6963C43.6333 30.9919 43.1652 31.1397 42.6889 31.1397C42.3112 31.1397 41.9827 31.0248 41.7035 30.7948C41.4407 30.5649 41.2847 30.2036 41.2354 29.7108C41.0712 29.9079 40.8823 30.1132 40.6688 30.3267C40.4717 30.5403 40.25 30.7373 40.0036 30.918C39.7737 31.0987 39.5273 31.2465 39.2645 31.3615C39.0017 31.4764 38.739 31.5339 38.4762 31.5339C38.0656 31.5339 37.7125 31.4025 37.4168 31.1397C37.1212 30.8605 37.0062 30.4335 37.0719 29.8587C37.1376 29.2346 37.3183 28.6433 37.6139 28.0849C37.8931 27.5265 38.238 27.0337 38.6486 26.6067C39.0428 26.1797 39.4698 25.843 39.9297 25.5967C40.406 25.3503 40.8494 25.2271 41.26 25.2271C41.6871 25.2271 42.0402 25.3585 42.3194 25.6213C42.3851 25.6706 42.4344 25.728 42.4672 25.7937C42.5165 25.8594 42.5575 25.9333 42.5904 26.0155C42.6561 25.9169 42.73 25.8266 42.8121 25.7445C42.9106 25.6459 43.0256 25.5967 43.157 25.5967C43.272 25.5967 43.3787 25.6295 43.4773 25.6952C43.5922 25.7609 43.6744 25.8512 43.7236 25.9662C43.7893 26.0812 43.8222 26.2043 43.8222 26.3357C43.8386 26.4671 43.8057 26.5985 43.7236 26.7299ZM42.073 26.5575C42.1223 26.3932 42.1059 26.27 42.0238 26.1879C41.9416 26.0894 41.8102 26.0401 41.6296 26.0401C41.4161 26.0401 41.2108 26.1058 41.0137 26.2372C40.718 26.4178 40.406 26.6642 40.0775 26.9763C39.749 27.2719 39.4452 27.6086 39.166 27.9863C38.8868 28.3477 38.6486 28.7336 38.4515 29.1442C38.238 29.5384 38.1149 29.9161 38.082 30.2775C38.0656 30.6388 38.197 30.8195 38.4762 30.8195C38.6897 30.8195 38.9607 30.7209 39.2892 30.5238C39.6341 30.3103 39.979 30.0147 40.3239 29.6369C40.6688 29.2592 40.9973 28.8075 41.3093 28.282C41.6378 27.7564 41.8924 27.1816 42.073 26.5575ZM57.3263 11.1846C56.8993 11.7595 56.4723 12.359 56.0452 12.9831C55.6346 13.5908 55.2158 14.2149 54.7888 14.8554C56.1684 14.5926 57.5562 14.3545 58.9523 14.141C60.3483 13.911 61.6869 13.7139 62.9679 13.5497C64.2654 13.3855 65.4726 13.2541 66.5894 13.1555C67.7227 13.057 68.7163 13.0077 69.5703 13.0077C70.5886 13.0077 71.3523 13.0816 71.8615 13.2294C72.0914 13.3115 72.2146 13.4265 72.231 13.5743C72.2474 13.7057 72.1161 13.7468 71.8368 13.6975C71.5084 13.6318 71.147 13.5908 70.7529 13.5743C70.3751 13.5415 69.9645 13.5251 69.5211 13.5251C68.5356 13.5251 67.4352 13.5908 66.2199 13.7221C65.0045 13.8371 63.7316 13.9931 62.4013 14.1902C61.071 14.3873 59.7078 14.6173 58.3117 14.88C56.9321 15.1428 55.5772 15.4138 54.2468 15.693C53.3107 17.1383 52.4073 18.6165 51.5369 20.1275C50.6664 21.6385 49.8534 23.1166 49.0979 24.5619C48.3424 26.0072 47.6608 27.4033 47.0531 28.75C46.4619 30.0804 45.9692 31.304 45.575 32.4208C45.1808 33.5376 44.9098 34.5148 44.762 35.3525C44.6142 36.2065 44.6142 36.8553 44.762 37.2987C44.8605 37.6108 45.0823 37.7668 45.4272 37.7668C45.9035 37.7668 46.5604 37.4794 47.398 36.9045C48.2357 36.3461 49.1636 35.5742 50.1819 34.5888C51.2166 33.6033 52.2924 32.4372 53.4092 31.0905C54.5424 29.7437 55.6264 28.282 56.6611 26.7053C56.7268 26.5739 56.8254 26.5082 56.9568 26.5082C57.0389 26.5082 57.0964 26.5575 57.1292 26.656C57.1785 26.7381 57.1621 26.8449 57.0799 26.9763C56.6858 27.5675 56.1931 28.2738 55.6018 29.0949C55.027 29.8997 54.3864 30.7373 53.6802 31.6078C52.9904 32.4619 52.2677 33.3077 51.5122 34.1453C50.7567 34.9829 50.0012 35.7302 49.2457 36.3872C48.5067 37.0606 47.7922 37.6025 47.1024 38.0131C46.4126 38.4237 45.7967 38.629 45.2547 38.629C44.6635 38.629 44.1872 38.3498 43.8258 37.7914C43.4809 37.2494 43.3577 36.5021 43.4563 35.5496C43.5384 34.597 43.7848 33.513 44.1954 32.2976C44.5895 31.0987 45.1151 29.8012 45.7721 28.4051C46.4126 27.0091 47.1188 25.5967 47.8908 24.1678C48.6791 22.7389 49.4921 21.3264 50.3297 19.9304C51.1838 18.5344 52.0049 17.2287 52.7933 16.0133C51.5779 16.2761 50.42 16.5389 49.3196 16.8016C48.2357 17.048 47.2584 17.2779 46.388 17.4914C45.5175 17.6885 44.7866 17.861 44.1954 18.0088C43.5877 18.1402 43.1771 18.2305 42.9636 18.2798C42.5366 18.3783 42.1177 18.4687 41.7071 18.5508C41.2965 18.6329 40.9352 18.674 40.6232 18.674C40.1469 18.674 39.8266 18.5508 39.6624 18.3044C39.5638 18.173 39.5392 18.0088 39.5885 17.8117C39.6213 17.5982 39.7527 17.434 39.9826 17.319C40.1797 17.2369 40.344 17.1958 40.4753 17.1958C40.6724 17.1958 40.8367 17.2369 40.9681 17.319C41.083 17.4011 41.1241 17.475 41.0912 17.5407C41.042 17.6557 41.1405 17.7132 41.3869 17.7132C41.5511 17.7132 41.7728 17.6885 42.052 17.6393C42.3148 17.59 42.6105 17.5325 42.9389 17.4668C43.2674 17.3847 43.6041 17.3026 43.949 17.2204C44.2939 17.1383 44.6224 17.0562 44.9344 16.9741C46.0841 16.6785 47.3816 16.3746 48.8269 16.0626C50.2722 15.7341 51.7914 15.4138 53.3846 15.1018C54.3043 13.7386 55.1173 12.5725 55.8235 11.6035C56.5297 10.6344 57.0225 9.99391 57.3017 9.68186C57.4823 9.5012 57.6384 9.41086 57.7698 9.41086C57.8683 9.41086 57.9422 9.46014 57.9915 9.55868C58.0407 9.6408 58.0654 9.74755 58.0654 9.87895C58.0818 10.0103 58.0736 10.1582 58.0407 10.3224C58.0079 10.4702 57.9586 10.6098 57.8929 10.7412C57.8108 10.9219 57.7041 11.0615 57.5727 11.16C57.4413 11.2586 57.3592 11.2668 57.3263 11.1846ZM53.793 31.5339C53.9901 31.0412 54.2446 30.4992 54.5567 29.9079C54.8523 29.3167 55.1644 28.7336 55.4929 28.1588C55.8213 27.5839 56.1498 27.0337 56.4783 26.5082C56.8068 25.9826 57.1024 25.5392 57.3652 25.1778C57.5623 24.8822 57.7922 24.7344 58.055 24.7344C58.2849 24.7344 58.4656 24.8412 58.597 25.0547C58.7284 25.2517 58.7119 25.4406 58.5477 25.6213C58.3013 25.9005 58.0139 26.3111 57.6855 26.8531C57.357 27.3951 57.0367 27.9289 56.7246 28.4544C56.3633 29.0785 56.002 29.7355 55.6407 30.4253C55.9691 29.9983 56.2894 29.5877 56.6015 29.1935C56.9135 28.7829 57.2009 28.4051 57.4637 28.0602C57.7429 27.7153 57.9893 27.4197 58.2028 27.1733C58.4327 26.927 58.6298 26.7628 58.7941 26.6806C59.0733 26.5164 59.3361 26.4343 59.5824 26.4343C59.9109 26.4343 60.1244 26.5739 60.2229 26.8531C60.3215 27.1323 60.3051 27.4608 60.1737 27.8385C60.108 28.0356 60.0094 28.2902 59.878 28.6022C59.7467 28.8979 59.6235 29.2017 59.5085 29.5138C59.3935 29.8094 59.3032 30.0968 59.2375 30.376C59.1718 30.6388 59.1554 30.8441 59.1882 30.9919C59.2375 31.1562 59.3278 31.2383 59.4592 31.2383C59.6563 31.2383 59.9355 31.0905 60.2969 30.7948C60.6582 30.4828 61.0606 30.105 61.504 29.6616C61.9475 29.2017 62.3991 28.7008 62.859 28.1588C63.3353 27.6168 63.7787 27.1159 64.1893 26.656C64.2386 26.5903 64.3043 26.5575 64.3864 26.5575C64.485 26.5575 64.5589 26.6067 64.6081 26.7053C64.6738 26.7874 64.6656 26.8777 64.5835 26.9763C64.1729 27.4197 63.7869 27.8549 63.4256 28.282C63.0807 28.6926 62.7276 29.0949 62.3663 29.4891C62.0214 29.8833 61.66 30.261 61.2823 30.6224C60.9045 30.9837 60.4775 31.3286 60.0012 31.6571C59.6892 31.887 59.3443 32.002 58.9665 32.002C58.7037 32.002 58.4656 31.9281 58.2521 31.7803C58.055 31.6324 57.9236 31.3861 57.8579 31.0412C57.8251 30.7948 57.8415 30.5156 57.9072 30.2036C57.9729 29.8915 58.055 29.5877 58.1535 29.292C58.2521 28.9964 58.3506 28.7254 58.4492 28.4791C58.5641 28.2327 58.6545 28.0602 58.7202 27.9617C58.5066 28.0767 58.2192 28.3312 57.8579 28.7254C57.4966 29.1032 57.127 29.522 56.7493 29.9818C56.388 30.4253 56.0513 30.8605 55.7392 31.2875C55.4107 31.7146 55.1726 32.0102 55.0248 32.1744C54.7948 32.4536 54.5649 32.5932 54.335 32.5932C54.105 32.5932 53.9326 32.4783 53.8176 32.2483C53.7026 32.0348 53.6944 31.7967 53.793 31.5339ZM69.0091 26.7299C68.9106 26.8777 68.7792 27.0748 68.6149 27.3212C68.4507 27.5511 68.2865 27.7975 68.1222 28.0602C67.958 28.323 67.8184 28.5858 67.7034 28.8486C67.5884 29.1114 67.5145 29.3331 67.4817 29.5138C67.416 29.8915 67.4488 30.1625 67.5802 30.3267C67.728 30.4746 67.9169 30.5485 68.1469 30.5485C68.3768 30.5485 68.6314 30.4828 68.9106 30.3514C69.2062 30.2036 69.4608 30.0311 69.6743 29.834C69.9863 29.5548 70.2902 29.2346 70.5858 28.8732C70.8814 28.5119 71.1442 28.1752 71.3742 27.8632C71.6205 27.5347 71.8176 27.2555 71.9654 27.0255C72.1297 26.7792 72.2282 26.6396 72.261 26.6067C72.3103 26.5575 72.3678 26.5328 72.4335 26.5328C72.5156 26.5328 72.5895 26.5821 72.6552 26.6806C72.7209 26.7792 72.7127 26.8777 72.6306 26.9763C72.4007 27.3212 72.1132 27.7318 71.7683 28.2081C71.4399 28.6844 71.0703 29.1442 70.6597 29.5877C70.2655 30.0147 69.8385 30.3842 69.3786 30.6963C68.9188 30.9919 68.4507 31.1397 67.9744 31.1397C67.5967 31.1397 67.2682 31.0248 66.989 30.7948C66.7262 30.5649 66.5702 30.2036 66.5209 29.7108C66.3566 29.9079 66.1678 30.1132 65.9543 30.3267C65.7572 30.5403 65.5354 30.7373 65.2891 30.918C65.0592 31.0987 64.8128 31.2465 64.55 31.3615C64.2872 31.4764 64.0244 31.5339 63.7617 31.5339C63.3511 31.5339 62.998 31.4025 62.7023 31.1397C62.4067 30.8605 62.2917 30.4335 62.3574 29.8587C62.4231 29.2346 62.6038 28.6433 62.8994 28.0849C63.1786 27.5265 63.5235 27.0337 63.9341 26.6067C64.3283 26.1797 64.7553 25.843 65.2152 25.5967C65.6915 25.3503 66.1349 25.2271 66.5455 25.2271C66.9725 25.2271 67.3257 25.3585 67.6049 25.6213C67.6706 25.6706 67.7198 25.728 67.7527 25.7937C67.802 25.8594 67.843 25.9333 67.8759 26.0155C67.9416 25.9169 68.0155 25.8266 68.0976 25.7445C68.1961 25.6459 68.3111 25.5967 68.4425 25.5967C68.5575 25.5967 68.6642 25.6295 68.7628 25.6952C68.8777 25.7609 68.9598 25.8512 69.0091 25.9662C69.0748 26.0812 69.1077 26.2043 69.1077 26.3357C69.1241 26.4671 69.0912 26.5985 69.0091 26.7299ZM67.3585 26.5575C67.4078 26.3932 67.3914 26.27 67.3092 26.1879C67.2271 26.0894 67.0957 26.0401 66.9151 26.0401C66.7015 26.0401 66.4962 26.1058 66.2992 26.2372C66.0035 26.4178 65.6915 26.6642 65.363 26.9763C65.0345 27.2719 64.7307 27.6086 64.4515 27.9863C64.1723 28.3477 63.9341 28.7336 63.737 29.1442C63.5235 29.5384 63.4003 29.9161 63.3675 30.2775C63.3511 30.6388 63.4825 30.8195 63.7617 30.8195C63.9752 30.8195 64.2462 30.7209 64.5746 30.5238C64.9196 30.3103 65.2645 30.0147 65.6094 29.6369C65.9543 29.2592 66.2827 28.8075 66.5948 28.282C66.9233 27.7564 67.1778 27.1816 67.3585 26.5575ZM70.1214 31.2136C70.2363 30.8195 70.4088 30.3596 70.6387 29.834C70.8522 29.292 71.0822 28.75 71.3285 28.2081C71.5749 27.6661 71.8213 27.1405 72.0676 26.6314C72.314 26.1222 72.5275 25.6952 72.7081 25.3503C72.8067 25.1861 72.9299 25.1039 73.0777 25.1039C73.1762 25.1039 73.283 25.1368 73.398 25.2025C73.5129 25.2517 73.6115 25.3257 73.6936 25.4242C73.7757 25.5063 73.8332 25.5967 73.866 25.6952C73.8989 25.7773 73.8989 25.8512 73.866 25.9169C74.0139 25.7855 74.1617 25.6952 74.3095 25.6459C74.4737 25.5802 74.6297 25.5474 74.7776 25.5474C75.106 25.5474 75.3688 25.687 75.5659 25.9662C75.7794 26.229 75.8041 26.5985 75.6398 27.0748C75.5905 27.2226 75.4838 27.4772 75.3196 27.8385C75.1717 28.1834 75.0239 28.5447 74.8761 28.9225C74.7283 29.2838 74.5969 29.6205 74.4819 29.9326C74.3834 30.2282 74.3588 30.4007 74.408 30.4499C74.4737 30.532 74.5969 30.4581 74.7776 30.2282C74.9747 29.9818 75.1964 29.6944 75.4427 29.3659C75.6891 29.021 75.9519 28.6926 76.2311 28.3805C76.5103 28.052 76.7649 27.8467 76.9948 27.7646C77.2247 27.6825 77.4382 27.74 77.6353 27.9371C77.8324 28.1177 77.8817 28.3641 77.7831 28.6761C77.7174 28.8404 77.6107 29.0949 77.4629 29.4399C77.3151 29.7683 77.1837 30.1132 77.0687 30.4746C76.9702 30.8359 76.9209 31.1562 76.9209 31.4354C76.9373 31.7146 77.0687 31.8706 77.3151 31.9034C77.6271 31.9363 77.9556 31.846 78.3005 31.6324C78.6618 31.4189 79.0232 31.1397 79.3845 30.7948C79.7458 30.4499 80.0989 30.064 80.4438 29.6369C80.7887 29.2099 81.1008 28.7993 81.38 28.4051C81.6592 28.011 81.8973 27.6661 82.0944 27.3704C82.2915 27.0748 82.4147 26.8859 82.464 26.8038C82.5297 26.6888 82.62 26.6314 82.735 26.6314C82.8171 26.6314 82.8828 26.6724 82.932 26.7545C82.9813 26.8202 82.9895 26.8941 82.9567 26.9763C82.891 27.1077 82.7432 27.3458 82.5132 27.6907C82.2833 28.0356 82.0041 28.4298 81.6756 28.8732C81.3636 29.3002 81.0104 29.7519 80.6163 30.2282C80.2221 30.6881 79.8197 31.1069 79.4091 31.4846C78.9985 31.846 78.5879 32.1334 78.1773 32.3469C77.7831 32.5768 77.4136 32.6589 77.0687 32.5932C76.6581 32.5276 76.3789 32.3469 76.2311 32.0513C76.0833 31.7556 76.0094 31.4271 76.0094 31.0658C76.0258 30.7045 76.0997 30.3432 76.2311 29.9818C76.3625 29.6205 76.4857 29.3331 76.6006 29.1196C76.4857 29.2181 76.3543 29.3742 76.2064 29.5877C76.0586 29.8012 75.9026 30.0311 75.7384 30.2775C75.5741 30.5238 75.3935 30.7702 75.1964 31.0165C74.9993 31.2629 74.7858 31.46 74.5558 31.6078C74.408 31.7064 74.252 31.7556 74.0878 31.7556C73.8742 31.7556 73.6854 31.6735 73.5211 31.5093C73.3733 31.345 73.2994 31.1233 73.2994 30.8441C73.2994 30.4828 73.3569 30.0886 73.4719 29.6616C73.5868 29.2346 73.71 28.824 73.8414 28.4298C73.9892 28.0356 74.1124 27.6907 74.2109 27.3951C74.3095 27.0994 74.3423 26.9188 74.3095 26.8531C74.2766 26.771 74.2274 26.7299 74.1617 26.7299C74.0139 26.7299 73.8086 26.9188 73.5458 27.2965C73.283 27.6579 73.0038 28.1013 72.7081 28.6269C72.4125 29.136 72.1333 29.678 71.8705 30.2528C71.5913 30.8277 71.3696 31.3122 71.2054 31.7064C71.1232 31.9034 70.9754 32.002 70.7619 32.002C70.5812 32.002 70.4088 31.9281 70.2446 31.7803C70.0803 31.6324 70.0393 31.4436 70.1214 31.2136ZM112.564 14.6583C112.351 14.8226 112.154 14.9211 111.973 14.9539C111.792 14.9868 111.653 14.9786 111.554 14.9293C111.472 14.8636 111.447 14.7733 111.48 14.6583C111.513 14.5269 111.636 14.3791 111.85 14.2149C113.114 13.2951 114.264 12.3507 115.299 11.3817C116.334 10.4127 117.237 9.46835 118.009 8.54861C118.781 7.62887 119.421 6.7584 119.93 5.9372C120.44 5.09958 120.801 4.36872 121.014 3.74461C121.228 3.10407 121.285 2.58672 121.187 2.19254C121.105 1.78195 120.85 1.5438 120.423 1.4781C119.503 1.33029 118.337 1.42883 116.925 1.77373C115.512 2.11864 113.977 2.63599 112.318 3.3258C110.675 3.99918 108.967 4.81216 107.194 5.76475C105.436 6.70091 103.728 7.70277 102.069 8.77033C100.427 9.82146 98.9077 10.8972 97.5117 11.9976C96.1157 13.0816 94.9578 14.1081 94.038 15.0771C93.1183 16.0461 92.5024 16.9248 92.1903 17.7132C91.8947 18.4851 92.0179 19.0846 92.5599 19.5116C93.1511 19.9715 94.0216 20.3738 95.1713 20.7187C96.321 21.0636 97.6184 21.4003 99.0638 21.7288C100.509 22.0409 102.028 22.3693 103.621 22.7143C105.215 23.0592 106.742 23.4698 108.204 23.946C109.682 24.4059 111.02 24.9561 112.219 25.5967C113.435 26.2372 114.379 27.0173 115.052 27.9371C117.04 27.5265 118.731 27.2062 120.127 26.9763C121.523 26.7299 122.46 26.5492 122.936 26.4343C123.034 26.4014 123.1 26.4096 123.133 26.4589C123.182 26.5082 123.215 26.5739 123.232 26.656C123.248 26.7217 123.24 26.7874 123.207 26.8531C123.191 26.9188 123.158 26.9598 123.108 26.9763C122.107 27.1733 120.949 27.4033 119.635 27.6661C118.337 27.9124 116.933 28.1998 115.422 28.5283C115.75 29.1032 115.948 29.7355 116.013 30.4253C116.095 31.1151 116.03 31.8706 115.816 32.6918C115.603 33.513 115.225 34.3999 114.683 35.3525C114.141 36.3215 113.41 37.3726 112.49 38.5059C111.012 40.3125 109.386 41.8646 107.612 43.162C105.855 44.4595 104.065 45.5271 102.242 46.3647C100.419 47.2023 98.6121 47.8182 96.8219 48.2124C95.0317 48.6066 93.3646 48.8037 91.8208 48.8037C90.589 48.8037 89.4722 48.6805 88.4703 48.4341C87.452 48.2042 86.6062 47.8675 85.9328 47.4241C85.2594 46.9806 84.7749 46.4304 84.4793 45.7735C84.1837 45.1329 84.1426 44.4021 84.3561 43.5809C84.5532 42.7597 85.0295 41.8563 85.785 40.8709C86.5405 39.9019 87.6245 38.859 89.0369 37.7422C90.0716 36.921 91.2213 36.1572 92.486 35.451C93.7506 34.7448 95.0727 34.0796 96.4523 33.4555C97.8484 32.8478 99.2855 32.2894 100.764 31.7803C102.258 31.2547 103.745 30.7784 105.223 30.3514C106.717 29.9244 108.179 29.5384 109.608 29.1935C111.037 28.8322 112.4 28.5119 113.697 28.2327C113.123 27.4936 112.326 26.8695 111.308 26.3604C110.306 25.8512 109.173 25.416 107.908 25.0547C106.643 24.6769 105.305 24.3566 103.892 24.0939C102.48 23.8147 101.1 23.5437 99.7536 23.2809C98.4068 23.0017 97.1339 22.706 95.935 22.394C94.736 22.0819 93.7178 21.696 92.8801 21.2361C92.0589 20.7598 91.4595 20.1932 91.0817 19.5362C90.704 18.8793 90.6547 18.0827 90.9339 17.1465C91.1474 16.4567 91.6155 15.6848 92.3381 14.8308C93.0772 13.9767 93.997 13.0816 95.0974 12.1454C96.2142 11.2093 97.4624 10.2649 98.842 9.31232C100.238 8.34331 101.692 7.40714 103.203 6.50383C104.73 5.60051 106.274 4.75468 107.834 3.96633C109.411 3.17798 110.922 2.48818 112.367 1.89691C113.812 1.30565 115.159 0.845782 116.407 0.517304C117.672 0.172401 118.748 -5.06409e-05 119.635 -5.06409e-05C120.308 -5.06409e-05 120.85 0.106705 121.261 0.320216C121.951 0.681542 122.361 1.17426 122.492 1.79837C122.624 2.42248 122.534 3.13692 122.221 3.94169C121.926 4.73004 121.45 5.58409 120.793 6.50383C120.152 7.42357 119.388 8.35973 118.501 9.31232C117.631 10.2485 116.678 11.1764 115.644 12.0962C114.625 13.0159 113.599 13.87 112.564 14.6583ZM114.092 28.824C112.022 29.2838 109.854 29.8176 107.588 30.4253C105.321 31.033 103.104 31.7146 100.936 32.4701C98.7681 33.242 96.7151 34.096 94.7771 35.0322C92.8391 35.9684 91.1474 37.0031 89.7021 38.1363C88.421 39.1382 87.4356 40.0743 86.7458 40.9448C86.056 41.8317 85.6125 42.6365 85.4155 43.3591C85.2184 44.0982 85.243 44.7552 85.4894 45.33C85.7357 45.9048 86.1545 46.3894 86.7458 46.7835C87.3371 47.1941 88.0761 47.5062 88.963 47.7197C89.8499 47.9332 90.8436 48.04 91.944 48.04C93.34 48.04 94.851 47.8511 96.477 47.4733C98.1194 47.112 99.7782 46.5454 101.453 45.7735C103.145 45.0015 104.804 44.0079 106.43 42.7925C108.056 41.5771 109.559 40.1154 110.938 38.4073C111.858 37.2741 112.589 36.2394 113.131 35.3032C113.673 34.367 114.059 33.5048 114.289 32.7164C114.535 31.9281 114.634 31.2136 114.584 30.5731C114.535 29.9326 114.371 29.3495 114.092 28.824ZM125.986 22.4679C126.085 22.2544 126.2 22.0327 126.331 21.8027C126.462 21.5728 126.594 21.3675 126.725 21.1868C126.873 21.0062 127.013 20.8583 127.144 20.7434C127.292 20.6284 127.44 20.5874 127.588 20.6202C127.785 20.6366 127.973 20.7434 128.154 20.9405C128.351 21.1376 128.409 21.3346 128.327 21.5317C128.277 21.6467 128.187 21.7945 128.056 21.9752C127.924 22.1394 127.776 22.3119 127.612 22.4925C127.448 22.6568 127.284 22.8128 127.119 22.9606C126.972 23.092 126.832 23.1905 126.701 23.2562C126.635 23.2891 126.545 23.2891 126.43 23.2562C126.331 23.207 126.233 23.1413 126.134 23.0592C126.052 22.977 125.994 22.8867 125.962 22.7882C125.929 22.6732 125.937 22.5664 125.986 22.4679ZM124.927 26.2125C124.467 26.7053 124.04 27.2473 123.646 27.8385C123.268 28.4298 122.972 29.0128 122.759 29.5877C122.529 30.1461 122.406 30.6634 122.389 31.1397C122.373 31.616 122.513 31.9938 122.808 32.273C122.94 32.3879 123.128 32.4454 123.375 32.4454C123.72 32.4454 124.138 32.3305 124.631 32.1005C125.124 31.8706 125.649 31.575 126.208 31.2136C126.783 30.8359 127.358 30.4253 127.932 29.9818C128.524 29.5384 129.082 29.1032 129.608 28.6761C130.15 28.2327 130.626 27.8303 131.037 27.469C131.464 27.0912 131.792 26.7956 132.022 26.5821C132.088 26.5164 132.153 26.4918 132.219 26.5082C132.285 26.5246 132.334 26.5575 132.367 26.6067C132.416 26.656 132.441 26.7217 132.441 26.8038C132.457 26.8695 132.433 26.927 132.367 26.9763C132.219 27.0912 131.948 27.3376 131.554 27.7153C131.176 28.0767 130.724 28.4955 130.199 28.9718C129.673 29.4481 129.09 29.949 128.45 30.4746C127.826 31.0001 127.193 31.4764 126.553 31.9034C125.929 32.3305 125.313 32.6836 124.705 32.9628C124.114 33.2584 123.588 33.4062 123.128 33.4062C122.931 33.4062 122.759 33.3816 122.611 33.3323C121.954 33.1188 121.519 32.7821 121.305 32.3223C121.092 31.8624 121.018 31.345 121.084 30.7702C121.149 30.1789 121.322 29.5712 121.601 28.9471C121.88 28.323 122.184 27.7482 122.513 27.2226C122.841 26.6971 123.153 26.2536 123.449 25.8923C123.744 25.531 123.95 25.3257 124.065 25.2764C124.262 25.1943 124.409 25.1532 124.508 25.1532C124.787 25.1532 124.968 25.2846 125.05 25.5474C125.149 25.7937 125.107 26.0155 124.927 26.2125ZM129.192 31.5339C129.389 31.0412 129.644 30.4992 129.956 29.9079C130.252 29.3167 130.564 28.7336 130.892 28.1588C131.221 27.5839 131.549 27.0337 131.878 26.5082C132.206 25.9826 132.502 25.5392 132.764 25.1778C132.962 24.8822 133.192 24.7344 133.454 24.7344C133.684 24.7344 133.865 24.8412 133.996 25.0547C134.128 25.2517 134.111 25.4406 133.947 25.6213C133.701 25.9005 133.413 26.3111 133.085 26.8531C132.756 27.3951 132.436 27.9289 132.124 28.4544C131.763 29.0785 131.401 29.7355 131.04 30.4253C131.368 29.9983 131.689 29.5877 132.001 29.1935C132.313 28.7829 132.6 28.4051 132.863 28.0602C133.142 27.7153 133.389 27.4197 133.602 27.1733C133.832 26.927 134.029 26.7628 134.193 26.6806C134.473 26.5164 134.735 26.4343 134.982 26.4343C135.31 26.4343 135.524 26.5739 135.622 26.8531C135.721 27.1323 135.704 27.4608 135.573 27.8385C135.507 28.0356 135.409 28.2902 135.277 28.6022C135.146 28.8979 135.023 29.2017 134.908 29.5138C134.793 29.8094 134.703 30.0968 134.637 30.376C134.571 30.6388 134.555 30.8441 134.588 30.9919C134.637 31.1562 134.727 31.2383 134.859 31.2383C135.056 31.2383 135.335 31.0905 135.696 30.7948C136.057 30.4828 136.46 30.105 136.903 29.6616C137.347 29.2017 137.798 28.7008 138.258 28.1588C138.735 27.6168 139.178 27.1159 139.589 26.656C139.638 26.5903 139.704 26.5575 139.786 26.5575C139.884 26.5575 139.958 26.6067 140.007 26.7053C140.073 26.7874 140.065 26.8777 139.983 26.9763C139.572 27.4197 139.186 27.8549 138.825 28.282C138.48 28.6926 138.127 29.0949 137.766 29.4891C137.421 29.8833 137.059 30.261 136.682 30.6224C136.304 30.9837 135.877 31.3286 135.401 31.6571C135.088 31.887 134.744 32.002 134.366 32.002C134.103 32.002 133.865 31.9281 133.651 31.7803C133.454 31.6324 133.323 31.3861 133.257 31.0412C133.224 30.7948 133.241 30.5156 133.306 30.2036C133.372 29.8915 133.454 29.5877 133.553 29.292C133.651 28.9964 133.75 28.7254 133.848 28.4791C133.963 28.2327 134.054 28.0602 134.119 27.9617C133.906 28.0767 133.619 28.3312 133.257 28.7254C132.896 29.1032 132.526 29.522 132.149 29.9818C131.787 30.4253 131.451 30.8605 131.139 31.2875C130.81 31.7146 130.572 32.0102 130.424 32.1744C130.194 32.4536 129.964 32.5932 129.734 32.5932C129.504 32.5932 129.332 32.4783 129.217 32.2483C129.102 32.0348 129.094 31.7967 129.192 31.5339ZM143.866 27.2473C143.357 27.9699 142.856 28.7254 142.364 29.5138C141.887 30.2857 141.411 31.0905 140.935 31.9281C141.887 31.2547 142.782 30.6306 143.62 30.0557C144.458 29.4809 145.213 28.9718 145.887 28.5283C146.56 28.0685 147.135 27.6743 147.611 27.3458C148.087 27.0173 148.449 26.7628 148.695 26.5821C148.794 26.5 148.9 26.4589 149.015 26.4589C149.147 26.4589 149.229 26.5164 149.262 26.6314C149.311 26.7299 149.262 26.8449 149.114 26.9763C148.999 27.0748 148.695 27.2965 148.202 27.6414C147.71 27.9699 147.069 28.4051 146.281 28.9471C145.509 29.4727 144.606 30.0968 143.571 30.8195C142.553 31.5257 141.452 32.2976 140.27 33.1352C139.317 34.909 138.364 36.7649 137.412 38.703C136.459 40.6574 135.457 42.6365 134.406 44.6402C133.339 46.6439 132.205 48.6476 131.007 50.6514C129.791 52.6551 128.461 54.6013 127.015 56.4901C126.03 57.7711 125.045 58.8715 124.059 59.7913C123.057 60.7274 122.097 61.4994 121.177 62.1071C120.241 62.7147 119.354 63.1582 118.516 63.4374C117.678 63.733 116.915 63.8808 116.225 63.8808C115.371 63.8808 114.673 63.6673 114.131 63.2403C113.573 62.8133 113.228 62.1974 113.096 61.3926C112.965 60.5878 113.08 59.5942 113.441 58.4117C113.786 57.2456 114.435 55.9152 115.387 54.4207C116.077 53.3367 116.939 52.2034 117.974 51.0209C119.009 49.8384 120.159 48.6394 121.423 47.4241C122.688 46.2087 124.035 44.9851 125.463 43.7533C126.892 42.5379 128.354 41.339 129.849 40.1565C131.343 38.9739 132.838 37.8243 134.332 36.7074C135.811 35.607 137.239 34.5641 138.619 33.5787C138.783 33.2666 138.939 32.9628 139.087 32.6672C139.235 32.3715 139.383 32.0841 139.531 31.8049C139.498 31.8377 139.432 31.887 139.333 31.9527C139.104 32.1334 138.841 32.273 138.545 32.3715C138.249 32.4865 137.962 32.544 137.683 32.544C137.322 32.544 137.018 32.4372 136.771 32.2237C136.525 32.0102 136.435 31.6653 136.5 31.189C136.582 30.5485 136.845 29.8669 137.289 29.1442C137.732 28.4216 138.241 27.7482 138.816 27.1241C139.391 26.5 139.974 25.9826 140.565 25.572C141.173 25.1614 141.674 24.9561 142.068 24.9561C142.249 24.9561 142.38 24.989 142.462 25.0547C142.676 25.1861 142.799 25.3831 142.832 25.6459C142.865 25.9087 142.865 26.1715 142.832 26.4343C143.029 26.2372 143.226 26.1386 143.423 26.1386C143.669 26.1386 143.85 26.2536 143.965 26.4835C144.096 26.7135 144.064 26.968 143.866 27.2473ZM141.92 27.2965C142.068 26.9188 142.126 26.5985 142.093 26.3357C142.06 26.0729 141.969 25.958 141.822 25.9908C141.477 26.0565 141.091 26.2782 140.664 26.656C140.237 27.0337 139.826 27.4854 139.432 28.011C139.038 28.5201 138.701 29.0621 138.422 29.6369C138.143 30.2118 137.978 30.7209 137.929 31.1644C137.913 31.3943 137.995 31.5093 138.176 31.5093C138.34 31.5093 138.586 31.4025 138.915 31.189C139.227 30.9591 139.563 30.6552 139.925 30.2775C140.302 29.8833 140.664 29.4316 141.009 28.9225C141.37 28.4134 141.674 27.8714 141.92 27.2965ZM138.028 34.7612C136.681 35.7302 135.301 36.7485 133.889 37.8161C132.46 38.9 131.048 40.0004 129.652 41.1173C128.239 42.2505 126.868 43.392 125.537 44.5417C124.191 45.6913 122.934 46.8328 121.768 47.966C120.586 49.0993 119.526 50.1997 118.59 51.2673C117.637 52.3512 116.849 53.3859 116.225 54.3714C115.322 55.8003 114.681 57.0403 114.303 58.0914C113.909 59.1425 113.729 60.013 113.761 60.7028C113.794 61.409 114.008 61.9346 114.402 62.2795C114.796 62.6244 115.313 62.7969 115.954 62.7969C116.562 62.7969 117.268 62.6408 118.073 62.3288C118.861 62.0331 119.699 61.5815 120.586 60.9738C121.472 60.3825 122.392 59.6353 123.345 58.7319C124.281 57.845 125.209 56.8103 126.129 55.6278C127.278 54.1497 128.395 52.5319 129.479 50.7745C130.547 49.0172 131.581 47.2188 132.583 45.3793C133.569 43.5562 134.521 41.7332 135.441 39.9101C136.344 38.0871 137.207 36.3708 138.028 34.7612ZM150.693 23.8229C150.349 24.5127 150.045 25.1368 149.782 25.6952C149.519 26.2536 149.297 26.7299 149.117 27.1241C148.953 27.5183 148.838 27.8139 148.772 28.011C148.706 28.2081 148.698 28.282 148.747 28.2327C149.191 27.7564 149.683 27.2555 150.225 26.7299C150.784 26.1879 151.342 25.6952 151.901 25.2517C152.459 24.7919 153.001 24.4141 153.527 24.1185C154.052 23.8229 154.512 23.6751 154.906 23.6751C155.12 23.6751 155.309 23.7243 155.473 23.8229C155.801 24.02 155.941 24.3649 155.892 24.8576C155.842 25.3339 155.695 25.8923 155.448 26.5328C155.218 27.1569 154.939 27.8221 154.611 28.5283C154.282 29.2346 154.011 29.9079 153.798 30.5485C153.584 31.189 153.469 31.7556 153.453 32.2483C153.436 32.7575 153.625 33.1188 154.019 33.3323C154.151 33.398 154.274 33.4309 154.389 33.4309C154.799 33.4309 155.325 33.2174 155.966 32.7903C156.606 32.3633 157.263 31.8213 157.936 31.1644C158.61 30.5074 159.259 29.7848 159.883 28.9964C160.507 28.2081 161.016 27.4526 161.41 26.7299C161.492 26.5821 161.583 26.4753 161.681 26.4096C161.78 26.3439 161.862 26.3193 161.927 26.3357C161.993 26.3522 162.026 26.4178 162.026 26.5328C162.026 26.6314 161.977 26.7792 161.878 26.9763C161.435 27.8139 160.893 28.6515 160.252 29.4891C159.628 30.3267 158.963 31.0905 158.257 31.7803C157.55 32.4536 156.836 33.0038 156.113 33.4309C155.391 33.8579 154.734 34.0714 154.143 34.0714C153.535 34.0714 153.042 33.8333 152.664 33.357C152.319 32.9135 152.172 32.3797 152.221 31.7556C152.27 31.1151 152.41 30.4499 152.64 29.7601C152.886 29.0539 153.173 28.3559 153.502 27.6661C153.847 26.9598 154.134 26.3357 154.364 25.7937C154.496 25.4653 154.537 25.2353 154.487 25.1039C154.438 24.9725 154.331 24.9068 154.167 24.9068C153.806 24.9068 153.387 25.0793 152.911 25.4242C152.352 25.8184 151.81 26.2454 151.285 26.7053C150.776 27.1651 150.275 27.6907 149.782 28.282C149.306 28.8568 148.846 29.5055 148.402 30.2282C147.959 30.9509 147.54 31.7721 147.146 32.6918C147.097 32.8232 146.973 32.8889 146.776 32.8889C146.612 32.8889 146.456 32.8232 146.308 32.6918C146.144 32.5768 146.078 32.4044 146.111 32.1744C146.193 31.6324 146.415 30.8523 146.776 29.834C147.121 28.7993 147.573 27.6414 148.131 26.3604C148.69 25.0629 149.339 23.6751 150.078 22.1969C150.817 20.7187 151.605 19.257 152.443 17.8117C153.28 16.35 154.151 14.9539 155.054 13.6236C155.974 12.2933 156.885 11.119 157.789 10.1007C158.692 9.06596 159.579 8.24476 160.449 7.63708C161.32 7.02939 162.141 6.72555 162.913 6.72555C163.209 6.72555 163.488 6.77482 163.751 6.87337C164.539 7.15257 165.064 7.67814 165.327 8.45006C165.59 9.22199 165.598 10.1335 165.352 11.1846C165.105 12.2194 164.605 13.3362 163.849 14.5351C163.11 15.7341 162.125 16.9166 160.893 18.0827C159.677 19.2488 158.216 20.341 156.508 21.3593C154.799 22.3611 152.861 23.1823 150.693 23.8229ZM151.088 23.0099C153.075 22.3693 154.841 21.581 156.384 20.6448C157.945 19.7087 159.283 18.715 160.4 17.6639C161.517 16.6128 162.412 15.5534 163.085 14.4859C163.775 13.4183 164.243 12.4329 164.49 11.5296C164.752 10.6098 164.793 9.82146 164.613 9.16451C164.449 8.50755 164.071 8.0641 163.48 7.83417C163.332 7.76847 163.143 7.73562 162.913 7.73562C162.354 7.73562 161.747 7.97377 161.09 8.45006C160.433 8.92636 159.751 9.55868 159.045 10.347C158.355 11.1354 157.649 12.0551 156.926 13.1063C156.204 14.141 155.489 15.2249 154.783 16.3582C154.093 17.4914 153.428 18.6329 152.788 19.7826C152.163 20.9158 151.597 21.9916 151.088 23.0099ZM191.5 14.6583C191.287 14.8226 191.09 14.9211 190.909 14.9539C190.728 14.9868 190.589 14.9786 190.49 14.9293C190.408 14.8636 190.383 14.7733 190.416 14.6583C190.449 14.5269 190.572 14.3791 190.786 14.2149C192.05 13.2951 193.2 12.3507 194.235 11.3817C195.269 10.4127 196.173 9.46835 196.945 8.54861C197.717 7.62887 198.357 6.7584 198.866 5.9372C199.375 5.09958 199.737 4.36872 199.95 3.74461C200.164 3.10407 200.221 2.58672 200.123 2.19254C200.041 1.78195 199.786 1.5438 199.359 1.4781C198.439 1.33029 197.273 1.42883 195.861 1.77373C194.448 2.11864 192.913 2.63599 191.254 3.3258C189.611 3.99918 187.903 4.81216 186.13 5.76475C184.372 6.70091 182.664 7.70277 181.005 8.77033C179.363 9.82146 177.844 10.8972 176.448 11.9976C175.052 13.0816 173.894 14.1081 172.974 15.0771C172.054 16.0461 171.438 16.9248 171.126 17.7132C170.831 18.4851 170.954 19.0846 171.496 19.5116C172.087 19.9715 172.958 20.3738 174.107 20.7187C175.257 21.0636 176.554 21.4003 178 21.7288C179.445 22.0409 180.964 22.3693 182.557 22.7143C184.15 23.0592 185.678 23.4698 187.14 23.946C188.618 24.4059 189.956 24.9561 191.155 25.5967C192.371 26.2372 193.315 27.0173 193.988 27.9371C195.976 27.5265 197.667 27.2062 199.063 26.9763C200.459 26.7299 201.396 26.5492 201.872 26.4343C201.97 26.4014 202.036 26.4096 202.069 26.4589C202.118 26.5082 202.151 26.5739 202.167 26.656C202.184 26.7217 202.176 26.7874 202.143 26.8531C202.126 26.9188 202.094 26.9598 202.044 26.9763C201.042 27.1733 199.885 27.4033 198.571 27.6661C197.273 27.9124 195.869 28.1998 194.358 28.5283C194.686 29.1032 194.883 29.7355 194.949 30.4253C195.031 31.1151 194.966 31.8706 194.752 32.6918C194.539 33.513 194.161 34.3999 193.619 35.3525C193.077 36.3215 192.346 37.3726 191.426 38.5059C189.948 40.3125 188.322 41.8646 186.548 43.162C184.791 44.4595 183.001 45.5271 181.178 46.3647C179.355 47.2023 177.548 47.8182 175.758 48.2124C173.968 48.6066 172.301 48.8037 170.757 48.8037C169.525 48.8037 168.408 48.6805 167.406 48.4341C166.388 48.2042 165.542 47.8675 164.869 47.4241C164.195 46.9806 163.711 46.4304 163.415 45.7735C163.12 45.1329 163.079 44.4021 163.292 43.5809C163.489 42.7597 163.965 41.8563 164.721 40.8709C165.476 39.9019 166.56 38.859 167.973 37.7422C169.008 36.921 170.157 36.1572 171.422 35.451C172.687 34.7448 174.009 34.0796 175.388 33.4555C176.784 32.8478 178.221 32.2894 179.7 31.7803C181.194 31.2547 182.68 30.7784 184.159 30.3514C185.653 29.9244 187.115 29.5384 188.544 29.1935C189.973 28.8322 191.336 28.5119 192.633 28.2327C192.059 27.4936 191.262 26.8695 190.244 26.3604C189.242 25.8512 188.109 25.416 186.844 25.0547C185.579 24.6769 184.241 24.3566 182.828 24.0939C181.416 23.8147 180.036 23.5437 178.689 23.2809C177.343 23.0017 176.07 22.706 174.871 22.394C173.672 22.0819 172.654 21.696 171.816 21.2361C170.995 20.7598 170.395 20.1932 170.018 19.5362C169.64 18.8793 169.591 18.0827 169.87 17.1465C170.083 16.4567 170.551 15.6848 171.274 14.8308C172.013 13.9767 172.933 13.0816 174.033 12.1454C175.15 11.2093 176.398 10.2649 177.778 9.31232C179.174 8.34331 180.628 7.40714 182.139 6.50383C183.666 5.60051 185.21 4.75468 186.77 3.96633C188.347 3.17798 189.858 2.48818 191.303 1.89691C192.748 1.30565 194.095 0.845782 195.343 0.517304C196.608 0.172401 197.684 -5.06409e-05 198.571 -5.06409e-05C199.244 -5.06409e-05 199.786 0.106705 200.197 0.320216C200.886 0.681542 201.297 1.17426 201.428 1.79837C201.56 2.42248 201.469 3.13692 201.157 3.94169C200.862 4.73004 200.386 5.58409 199.729 6.50383C199.088 7.42357 198.324 8.35973 197.437 9.31232C196.567 10.2485 195.614 11.1764 194.58 12.0962C193.561 13.0159 192.535 13.87 191.5 14.6583ZM193.028 28.824C190.958 29.2838 188.79 29.8176 186.524 30.4253C184.257 31.033 182.04 31.7146 179.872 32.4701C177.704 33.242 175.651 34.096 173.713 35.0322C171.775 35.9684 170.083 37.0031 168.638 38.1363C167.357 39.1382 166.372 40.0743 165.682 40.9448C164.992 41.8317 164.548 42.6365 164.351 43.3591C164.154 44.0982 164.179 44.7552 164.425 45.33C164.672 45.9048 165.09 46.3894 165.682 46.7835C166.273 47.1941 167.012 47.5062 167.899 47.7197C168.786 47.9332 169.779 48.04 170.88 48.04C172.276 48.04 173.787 47.8511 175.413 47.4733C177.055 47.112 178.714 46.5454 180.389 45.7735C182.081 45.0015 183.74 44.0079 185.366 42.7925C186.992 41.5771 188.495 40.1154 189.874 38.4073C190.794 37.2741 191.525 36.2394 192.067 35.3032C192.609 34.367 192.995 33.5048 193.225 32.7164C193.471 31.9281 193.57 31.2136 193.52 30.5731C193.471 29.9326 193.307 29.3495 193.028 28.824ZM206.696 26.7299C206.597 26.8777 206.466 27.0748 206.302 27.3212C206.137 27.5511 205.973 27.7975 205.809 28.0602C205.645 28.323 205.505 28.5858 205.39 28.8486C205.275 29.1114 205.201 29.3331 205.168 29.5138C205.103 29.8915 205.136 30.1625 205.267 30.3267C205.415 30.4746 205.604 30.5485 205.834 30.5485C206.064 30.5485 206.318 30.4828 206.597 30.3514C206.893 30.2036 207.148 30.0311 207.361 29.834C207.673 29.5548 207.977 29.2346 208.273 28.8732C208.568 28.5119 208.831 28.1752 209.061 27.8632C209.307 27.5347 209.504 27.2555 209.652 27.0255C209.816 26.7792 209.915 26.6396 209.948 26.6067C209.997 26.5575 210.055 26.5328 210.12 26.5328C210.202 26.5328 210.276 26.5821 210.342 26.6806C210.408 26.7792 210.399 26.8777 210.317 26.9763C210.087 27.3212 209.8 27.7318 209.455 28.2081C209.127 28.6844 208.757 29.1442 208.346 29.5877C207.952 30.0147 207.525 30.3842 207.065 30.6963C206.606 30.9919 206.137 31.1397 205.661 31.1397C205.283 31.1397 204.955 31.0248 204.676 30.7948C204.413 30.5649 204.257 30.2036 204.208 29.7108C204.043 29.9079 203.855 30.1132 203.641 30.3267C203.444 30.5403 203.222 30.7373 202.976 30.918C202.746 31.0987 202.5 31.2465 202.237 31.3615C201.974 31.4764 201.711 31.5339 201.448 31.5339C201.038 31.5339 200.685 31.4025 200.389 31.1397C200.093 30.8605 199.978 30.4335 200.044 29.8587C200.11 29.2346 200.291 28.6433 200.586 28.0849C200.865 27.5265 201.21 27.0337 201.621 26.6067C202.015 26.1797 202.442 25.843 202.902 25.5967C203.378 25.3503 203.822 25.2271 204.232 25.2271C204.659 25.2271 205.012 25.3585 205.292 25.6213C205.357 25.6706 205.407 25.728 205.439 25.7937C205.489 25.8594 205.53 25.9333 205.563 26.0155C205.628 25.9169 205.702 25.8266 205.784 25.7445C205.883 25.6459 205.998 25.5967 206.129 25.5967C206.244 25.5967 206.351 25.6295 206.45 25.6952C206.564 25.7609 206.647 25.8512 206.696 25.9662C206.762 26.0812 206.794 26.2043 206.794 26.3357C206.811 26.4671 206.778 26.5985 206.696 26.7299ZM205.045 26.5575C205.095 26.3932 205.078 26.27 204.996 26.1879C204.914 26.0894 204.782 26.0401 204.602 26.0401C204.388 26.0401 204.183 26.1058 203.986 26.2372C203.69 26.4178 203.378 26.6642 203.05 26.9763C202.721 27.2719 202.417 27.6086 202.138 27.9863C201.859 28.3477 201.621 28.7336 201.424 29.1442C201.21 29.5384 201.087 29.9161 201.054 30.2775C201.038 30.6388 201.169 30.8195 201.448 30.8195C201.662 30.8195 201.933 30.7209 202.261 30.5238C202.606 30.3103 202.951 30.0147 203.296 29.6369C203.641 29.2592 203.97 28.8075 204.282 28.282C204.61 27.7564 204.865 27.1816 205.045 26.5575ZM207.094 31.5339C207.291 31.0412 207.545 30.4992 207.857 29.9079C208.153 29.3167 208.465 28.7336 208.794 28.1588C209.122 27.5839 209.451 27.0337 209.779 26.5082C210.108 25.9826 210.403 25.5392 210.666 25.1778C210.863 24.8822 211.093 24.7344 211.356 24.7344C211.586 24.7344 211.766 24.8412 211.898 25.0547C212.029 25.2517 212.013 25.4406 211.848 25.6213C211.602 25.9005 211.315 26.3111 210.986 26.8531C210.658 27.3951 210.337 27.9289 210.025 28.4544C209.664 29.0785 209.303 29.7355 208.941 30.4253C209.27 29.9983 209.59 29.5877 209.902 29.1935C210.214 28.7829 210.502 28.4051 210.764 28.0602C211.044 27.7153 211.29 27.4197 211.504 27.1733C211.733 26.927 211.931 26.7628 212.095 26.6806C212.374 26.5164 212.637 26.4343 212.883 26.4343C213.212 26.4343 213.425 26.5739 213.524 26.8531C213.622 27.1323 213.606 27.4608 213.474 27.8385C213.409 28.0356 213.31 28.2902 213.179 28.6022C213.047 28.8979 212.924 29.2017 212.809 29.5138C212.694 29.8094 212.604 30.0968 212.538 30.376C212.473 30.6388 212.456 30.8441 212.489 30.9919C212.538 31.1562 212.629 31.2383 212.76 31.2383C212.957 31.2383 213.236 31.0905 213.598 30.7948C213.959 30.4828 214.361 30.105 214.805 29.6616C215.248 29.2017 215.7 28.7008 216.16 28.1588C216.636 27.6168 217.079 27.1159 217.49 26.656C217.539 26.5903 217.605 26.5575 217.687 26.5575C217.786 26.5575 217.86 26.6067 217.909 26.7053C217.975 26.7874 217.966 26.8777 217.884 26.9763C217.474 27.4197 217.088 27.8549 216.726 28.282C216.381 28.6926 216.028 29.0949 215.667 29.4891C215.322 29.8833 214.961 30.261 214.583 30.6224C214.205 30.9837 213.778 31.3286 213.302 31.6571C212.99 31.887 212.645 32.002 212.267 32.002C212.004 32.002 211.766 31.9281 211.553 31.7803C211.356 31.6324 211.224 31.3861 211.159 31.0412C211.126 30.7948 211.142 30.5156 211.208 30.2036C211.274 29.8915 211.356 29.5877 211.454 29.292C211.553 28.9964 211.651 28.7254 211.75 28.4791C211.865 28.2327 211.955 28.0602 212.021 27.9617C211.807 28.0767 211.52 28.3312 211.159 28.7254C210.797 29.1032 210.428 29.522 210.05 29.9818C209.689 30.4253 209.352 30.8605 209.04 31.2875C208.711 31.7146 208.473 32.0102 208.326 32.1744C208.096 32.4536 207.866 32.5932 207.636 32.5932C207.406 32.5932 207.233 32.4783 207.118 32.2483C207.003 32.0348 206.995 31.7967 207.094 31.5339ZM220.536 29.5138C220.339 29.6616 220.068 29.8751 219.723 30.1543C219.378 30.4171 219.009 30.6799 218.614 30.9426C218.22 31.2054 217.834 31.4354 217.457 31.6324C217.062 31.8131 216.734 31.9034 216.471 31.9034C216.126 31.9034 215.872 31.7638 215.707 31.4846C215.543 31.2054 215.469 30.8523 215.486 30.4253C215.486 29.9818 215.576 29.4973 215.757 28.9718C215.937 28.4298 216.2 27.9042 216.545 27.3951C216.874 26.8859 217.284 26.4178 217.777 25.9908C218.286 25.5638 218.869 25.2435 219.526 25.03C219.707 24.9643 219.912 24.9315 220.142 24.9315C220.536 24.9315 220.881 25.0464 221.177 25.2764C221.472 25.5063 221.678 25.8102 221.792 26.1879C222.318 25.0382 222.934 23.8393 223.64 22.5911C224.346 21.3264 225.102 20.07 225.907 18.8218C226.711 17.5571 227.549 16.3336 228.42 15.151C229.29 13.9521 230.144 12.8435 230.982 11.8252C231.819 10.7905 232.616 9.87073 233.371 9.06596C234.143 8.26119 234.833 7.62066 235.441 7.14436C236.426 6.37244 237.173 5.98647 237.683 5.98647C237.962 5.98647 238.159 6.09323 238.274 6.30674C238.389 6.52025 238.43 6.81588 238.397 7.19363C238.364 7.55496 238.257 7.99019 238.077 8.49934C237.913 9.00848 237.674 9.55868 237.362 10.1499C236.82 11.1846 236.18 12.2522 235.441 13.3526C234.718 14.4366 233.93 15.5288 233.076 16.6292C232.238 17.7296 231.351 18.8218 230.415 19.9058C229.479 20.9733 228.526 22.008 227.557 23.0099C226.605 23.9953 225.66 24.9397 224.724 25.843C223.788 26.7299 222.901 27.5347 222.063 28.2573C221.538 29.4399 221.185 30.4499 221.004 31.2875C220.84 32.1252 220.914 32.7082 221.226 33.0367C221.439 33.2502 221.719 33.357 222.063 33.357C222.491 33.357 222.991 33.2091 223.566 32.9135C224.141 32.6343 224.732 32.273 225.34 31.8295C225.964 31.3861 226.58 30.9016 227.188 30.376C227.795 29.834 228.354 29.3167 228.863 28.824C229.372 28.3148 229.807 27.8632 230.169 27.469C230.53 27.0748 230.76 26.8038 230.858 26.656C230.908 26.5739 230.99 26.5328 231.105 26.5328C231.187 26.5328 231.261 26.5739 231.327 26.656C231.392 26.7381 231.376 26.8449 231.277 26.9763C231.162 27.1405 230.908 27.4361 230.514 27.8632C230.136 28.2738 229.676 28.7418 229.134 29.2674C228.608 29.7765 228.017 30.3103 227.36 30.8687C226.703 31.4271 226.038 31.9363 225.365 32.3962C224.708 32.8725 224.067 33.2584 223.443 33.554C222.819 33.8497 222.261 33.9975 221.768 33.9975C221.209 33.9975 220.791 33.7758 220.511 33.3323C220.265 32.9217 220.15 32.3962 220.167 31.7556C220.183 31.0987 220.306 30.3514 220.536 29.5138ZM222.753 26.8038C223.936 25.7363 225.184 24.5455 226.498 23.2316C227.812 21.9013 229.101 20.5052 230.366 19.0435C231.647 17.5653 232.846 16.0626 233.963 14.5351C235.079 12.9913 236.016 11.4803 236.771 10.0021C236.919 9.72292 237.067 9.41086 237.215 9.06596C237.379 8.72106 237.51 8.409 237.609 8.1298C237.724 7.83417 237.781 7.60423 237.781 7.43999C237.781 7.27575 237.691 7.23469 237.51 7.31681C237.001 7.54675 236.361 8.02304 235.589 8.74569C234.833 9.45192 234.012 10.3306 233.125 11.3817C232.238 12.4164 231.31 13.5743 230.341 14.8554C229.372 16.1365 228.428 17.4668 227.508 18.8464C226.588 20.2096 225.718 21.581 224.897 22.9606C224.075 24.3238 223.361 25.6049 222.753 26.8038ZM216.988 31.1397C217.268 31.074 217.719 30.8277 218.343 30.4007C218.984 29.9736 219.748 29.3906 220.635 28.6515C220.733 28.5201 220.848 28.3148 220.979 28.0356C221.127 27.7564 221.226 27.4772 221.275 27.198C221.324 26.9024 221.308 26.6396 221.226 26.4096C221.144 26.1797 220.93 26.0647 220.585 26.0647C220.191 26.0483 219.789 26.1715 219.378 26.4343C218.984 26.6971 218.606 27.0255 218.245 27.4197C217.884 27.8139 217.572 28.2409 217.309 28.7008C217.03 29.1606 216.824 29.5795 216.693 29.9572C216.545 30.335 216.496 30.647 216.545 30.8934C216.578 31.1233 216.726 31.2054 216.988 31.1397ZM232.853 23.8229C232.508 24.5127 232.204 25.1368 231.942 25.6952C231.679 26.2536 231.457 26.7299 231.277 27.1241C231.112 27.5183 230.997 27.8139 230.932 28.011C230.866 28.2081 230.858 28.282 230.907 28.2327C231.35 27.7564 231.843 27.2555 232.385 26.7299C232.944 26.1879 233.502 25.6952 234.06 25.2517C234.619 24.7919 235.161 24.4141 235.686 24.1185C236.212 23.8229 236.672 23.6751 237.066 23.6751C237.279 23.6751 237.468 23.7243 237.633 23.8229C237.961 24.02 238.101 24.3649 238.051 24.8576C238.002 25.3339 237.854 25.8923 237.608 26.5328C237.378 27.1569 237.099 27.8221 236.77 28.5283C236.442 29.2346 236.171 29.9079 235.957 30.5485C235.744 31.189 235.629 31.7556 235.612 32.2483C235.596 32.7575 235.785 33.1188 236.179 33.3323C236.31 33.398 236.434 33.4309 236.549 33.4309C236.959 33.4309 237.485 33.2174 238.125 32.7903C238.766 32.3633 239.423 31.8213 240.096 31.1644C240.77 30.5074 241.418 29.7848 242.042 28.9964C242.667 28.2081 243.176 27.4526 243.57 26.7299C243.652 26.5821 243.742 26.4753 243.841 26.4096C243.939 26.3439 244.022 26.3193 244.087 26.3357C244.153 26.3522 244.186 26.4178 244.186 26.5328C244.186 26.6314 244.136 26.7792 244.038 26.9763C243.594 27.8139 243.052 28.6515 242.412 29.4891C241.788 30.3267 241.123 31.0905 240.416 31.7803C239.71 32.4536 238.996 33.0038 238.273 33.4309C237.55 33.8579 236.894 34.0714 236.302 34.0714C235.695 34.0714 235.202 33.8333 234.824 33.357C234.479 32.9135 234.331 32.3797 234.381 31.7556C234.43 31.1151 234.57 30.4499 234.799 29.7601C235.046 29.0539 235.333 28.3559 235.662 27.6661C236.007 26.9598 236.294 26.3357 236.524 25.7937C236.655 25.4653 236.696 25.2353 236.647 25.1039C236.598 24.9725 236.491 24.9068 236.327 24.9068C235.966 24.9068 235.547 25.0793 235.07 25.4242C234.512 25.8184 233.97 26.2454 233.444 26.7053C232.935 27.1651 232.434 27.6907 231.942 28.282C231.465 28.8568 231.006 29.5055 230.562 30.2282C230.119 30.9509 229.7 31.7721 229.306 32.6918C229.256 32.8232 229.133 32.8889 228.936 32.8889C228.772 32.8889 228.616 32.8232 228.468 32.6918C228.304 32.5768 228.238 32.4044 228.271 32.1744C228.353 31.6324 228.575 30.8523 228.936 29.834C229.281 28.7993 229.733 27.6414 230.291 26.3604C230.85 25.0629 231.498 23.6751 232.237 22.1969C232.976 20.7187 233.765 19.257 234.602 17.8117C235.44 16.35 236.31 14.9539 237.214 13.6236C238.134 12.2933 239.045 11.119 239.948 10.1007C240.852 9.06596 241.739 8.24476 242.609 7.63708C243.48 7.02939 244.301 6.72555 245.073 6.72555C245.368 6.72555 245.647 6.77482 245.91 6.87337C246.699 7.15257 247.224 7.67814 247.487 8.45006C247.75 9.22199 247.758 10.1335 247.512 11.1846C247.265 12.2194 246.764 13.3362 246.009 14.5351C245.27 15.7341 244.284 16.9166 243.052 18.0827C241.837 19.2488 240.375 20.341 238.667 21.3593C236.959 22.3611 235.021 23.1823 232.853 23.8229ZM233.247 23.0099C235.235 22.3693 237 21.581 238.544 20.6448C240.104 19.7087 241.443 18.715 242.56 17.6639C243.677 16.6128 244.572 15.5534 245.245 14.4859C245.935 13.4183 246.403 12.4329 246.649 11.5296C246.912 10.6098 246.953 9.82146 246.773 9.16451C246.608 8.50755 246.231 8.0641 245.639 7.83417C245.491 7.76847 245.303 7.73562 245.073 7.73562C244.514 7.73562 243.907 7.97377 243.25 8.45006C242.593 8.92636 241.911 9.55868 241.205 10.347C240.515 11.1354 239.809 12.0551 239.086 13.1063C238.363 14.141 237.649 15.2249 236.943 16.3582C236.253 17.4914 235.588 18.6329 234.947 19.7826C234.323 20.9158 233.757 21.9916 233.247 23.0099ZM244.718 24.0692C244.784 23.9543 244.924 23.8968 245.137 23.8968C245.252 23.8968 245.367 23.9214 245.482 23.9707C245.614 24.0035 245.72 24.0528 245.802 24.1185C245.901 24.1678 245.967 24.2335 246 24.3156C246.049 24.3813 246.049 24.447 246 24.5127C245.852 24.7098 245.63 25.0382 245.334 25.4981C245.039 25.958 244.751 26.4507 244.472 26.9763C244.209 27.4854 243.996 27.9699 243.832 28.4298C243.684 28.8897 243.676 29.2181 243.807 29.4152C243.856 29.4645 243.906 29.4891 243.955 29.4891C244.135 29.4891 244.39 29.3413 244.718 29.0457C245.047 28.7336 245.4 28.3723 245.778 27.9617C246.172 27.5511 246.566 27.1323 246.96 26.7053C247.355 26.2782 247.699 25.9333 247.995 25.6706C248.11 25.572 248.217 25.5063 248.315 25.4735C248.414 25.4406 248.504 25.4242 248.586 25.4242C248.816 25.4242 249.005 25.5063 249.153 25.6706C249.301 25.8184 249.391 25.9333 249.424 26.0155C249.473 26.1633 249.44 26.3932 249.325 26.7053C249.227 27.0009 249.095 27.3376 248.931 27.7153C248.783 28.0767 248.627 28.4462 248.463 28.824C248.299 29.1853 248.184 29.5138 248.118 29.8094C248.036 30.1871 248.044 30.4581 248.143 30.6224C248.258 30.7702 248.43 30.8441 248.66 30.8441C248.989 30.8441 249.391 30.7209 249.867 30.4746C250.36 30.2118 250.861 29.8833 251.37 29.4891C251.879 29.0949 252.356 28.6597 252.799 28.1834C253.243 27.6907 253.579 27.2226 253.809 26.7792C253.842 26.7299 253.891 26.7053 253.957 26.7053C254.023 26.7053 254.088 26.7217 254.154 26.7545C254.22 26.771 254.269 26.8038 254.302 26.8531C254.351 26.8859 254.359 26.927 254.326 26.9763C253.916 27.6004 253.44 28.1998 252.898 28.7747C252.372 29.3331 251.83 29.8258 251.272 30.2528C250.713 30.6634 250.163 30.9919 249.621 31.2383C249.095 31.4846 248.627 31.6078 248.217 31.6078C247.806 31.6078 247.494 31.4764 247.281 31.2136C247.034 30.918 246.936 30.5485 246.985 30.105C247.034 29.6616 247.141 29.2099 247.305 28.75C247.47 28.2902 247.642 27.8714 247.823 27.4936C248.003 27.1159 248.11 26.8531 248.143 26.7053C248.209 26.4425 248.143 26.3932 247.946 26.5575C247.749 26.7217 247.478 26.9927 247.133 27.3704C246.804 27.7318 246.435 28.1424 246.024 28.6022C245.614 29.0457 245.219 29.4234 244.842 29.7355C244.562 29.9654 244.283 30.1543 244.004 30.3021C243.725 30.4499 243.47 30.5238 243.24 30.5238C242.994 30.5238 242.805 30.4171 242.674 30.2036C242.542 29.9901 242.518 29.6205 242.6 29.0949C242.666 28.6515 242.78 28.1916 242.945 27.7153C243.093 27.239 243.273 26.7792 243.487 26.3357C243.684 25.8923 243.889 25.4817 244.103 25.1039C244.316 24.7098 244.521 24.3649 244.718 24.0692Z" fill="black"/>
</svg>
