<svg width="21" height="21" viewBox="0 0 21 21" fill="none" xmlns="http://www.w3.org/2000/svg">
<path d="M11.4465 20.643C10.6934 20.643 9.94082 20.643 9.18771 20.643C9.05735 20.6182 8.92806 20.5892 8.79662 20.5687C6.18176 20.1611 4.01996 18.9344 2.34352 16.8951C0.34225 14.4611 -0.34567 11.6432 0.159092 8.55764C0.604059 5.83826 1.99929 3.6536 4.20904 2.02144C6.48344 0.341346 9.04711 -0.290304 11.844 0.12218C14.4697 0.509355 16.6396 1.75327 18.3058 3.813C20.3307 6.3159 21.0273 9.18229 20.4433 12.3508C19.7274 16.2371 16.5534 19.5348 12.707 20.4007C12.2901 20.4949 11.8667 20.5628 11.4465 20.643ZM13.2086 12.2479C14.6119 10.2636 14.0516 7.73483 12.3994 6.45268C10.7844 5.19907 8.51003 5.27339 7.00598 6.63738C5.48199 8.01915 5.16685 10.2792 6.26419 12.0051C6.81151 12.8656 7.57161 13.4671 8.54558 13.7665C9.89018 14.18 11.1448 13.9501 12.3111 13.1424C12.3989 13.2366 12.4743 13.3222 12.5546 13.403C13.0335 13.8849 13.5097 14.3696 13.994 14.8461C14.2563 15.1041 14.6507 15.1035 14.9022 14.8607C15.1608 14.6108 15.1662 14.2113 14.9049 13.9377C14.6728 13.6943 14.4325 13.459 14.1939 13.2215C13.8647 12.8952 13.5345 12.5705 13.2086 12.2479Z" fill="white"/>
<path d="M12.7142 9.76282C12.7142 11.3708 11.4057 12.6804 9.80469 12.675C8.20852 12.6696 6.91133 11.3708 6.90433 9.77143C6.89732 8.16565 8.19828 6.85873 9.80684 6.8555C11.4186 6.85281 12.7142 8.14788 12.7142 9.76282Z" fill="white"/>
</svg>
